<?xml version="1.0" encoding="UTF-8"?>
<svg id="It" xmlns="http://www.w3.org/2000/svg" viewBox="0 0 2981.01 283.03">
  <defs>
    <style>
      .cls-1 {
        fill: none;
        stroke: #fff;
        stroke-miterlimit: 10;
        stroke-width: 8px;
      }

      .cls-2 {
        fill: #fff;
      }
    </style>
  </defs>
  <g>
    <path class="cls-2" d="M.02,278.91c3.48,0,7.37.01,11.5.02V4.05H0v55.29c.02,28.89.02,59.39.02,88.68.02,19.53.02,38.52,0,56.13v74.75Z"/>
    <path class="cls-2" d="M401.6,4v.05h-93c-33.84,24.63-93.14,67.92-105.34,77.05C175.47,60.95,120.91,21.49,96.72,4.05H19.53v274.89c22.95.03,51.7.06,73.09.09v-15.37c0-31.04,0-67.26.02-101.89,0-23.48.02-46.22.05-66.11,12.39,8.96,28.22,20.43,44.72,32.4,22.84,16.57,46.98,34.1,65.14,47.27,40.49-29.44,104.74-75.89,148.31-107.66,15.56.02,34.2,0,50.77-.02,0,42.44,0,86.38.02,124.54v10.64c0,1.08.05,5.77.05,9.79-32.3-.02-81.11-.06-107.29-.09-.02-20.03,0-53.77-.02-72.4-19.96,14.45-66.65,48.24-91.77,66.31.26,18.5.07,57.03.02,72.52,3.72,0,7.54,0,11.46-.02h281.27v-22.59c0-24.4.02-49.82.02-75.53V4h-93.79Z"/>
  </g>
  <g>
    <path class="cls-1" d="M706.27,279.03h-176.3v-65.84h30.46V69.84h-31.5V4h285.83v90.56h-77.19v-24.72h-64.89v42.31h50.07v55.96h-50.07v45.08h33.59v65.84Z"/>
    <path class="cls-1" d="M1001.7,279.03h-165.45v-65.84h26.71V69.84h-26.71V4h165.45v65.84h-26.5v143.35h26.5v65.84Z"/>
    <path class="cls-1" d="M1308.39,279.03h-276.23v-65.84h26.08V69.84h-26.08V4h165.86v65.84h-27.54v143.35h68.64v-44.09h69.27v109.93Z"/>
    <path class="cls-1" d="M1446.3,279.03h-112.45v-65.84h22.32V69.84h-22.95V4h175.04l42.77,106.18,43.81-106.18h174v65.84h-22.74v143.35h23.37v65.84h-151.47v-65.84h23.16V59.56l-87.63,219.47h-43.4l-86.79-217.49v151.65h22.95v65.84Z"/>
    <path class="cls-1" d="M2083.26,279.03h-276.86v-65.84h22.53V69.84h-22.95V4h277.27v87.99h-76.15v-22.14h-65.93v42.31h57.37v55.96h-57.37v45.08h65.93v-22.14h76.15v87.99Z"/>
    <path class="cls-1" d="M2264.35,279.03h-134.99v-65.84h22.74V69.84h-22.74V4h138.95c31.71,0,57.58,1.85,77.61,5.54,20.17,3.69,39.15,11.27,56.96,22.74,17.66,11.6,31.57,27.29,41.73,47.06,5.01,9.49,8.83,19.64,11.47,30.45,2.64,10.81,3.96,22.14,3.96,34.01,0,23.86-5.35,45.61-16.06,65.25-10.57,19.51-23.99,34.47-40.27,44.88-15.86,10.41-33.24,17.2-52.16,20.37-18.78,3.16-47.85,4.75-87.21,4.75ZM2264.35,69.84v143.35h10.64c26.43,0,43.6-6.66,51.53-19.97,7.79-13.31,11.68-30.05,11.68-50.22,0-12.13-1.67-24.12-5.01-35.99-3.48-11.86-9.6-21.02-18.36-27.48-8.62-6.46-24.06-9.69-46.32-9.69h-4.17Z"/>
  </g>
  <g>
    <path class="cls-2" d="M2661.8,279.03h-165.45v-65.84h26.71V69.84h-26.71V4h165.45v65.84h-26.5v143.35h26.5v65.84Z"/>
    <path class="cls-2" d="M2919.05,279.03h-162.94v-65.84h25.04V69.84h-33.38v50.02h-54.45V4h287.71v115.87h-54.45v-50.02h-33.17v143.35h25.66v65.84Z"/>
  </g>
</svg>