<?xml version="1.0" encoding="UTF-8"?>
<svg id="Layer_4" data-name="Layer 4" xmlns="http://www.w3.org/2000/svg" viewBox="0 0 482.63 338.99">
  <defs>
    <style>
      .cls-1 {
        fill: none;
        stroke: #fff;
        stroke-miterlimit: 10;
      }

      .cls-2 {
        fill: #fff;
      }
    </style>
  </defs>
  <g>
    <path class="cls-2" d="M34.87,338.49H.21v-12.95h5.99v-28.19H0v-12.95h56.2v17.81h-15.18v-4.86h-12.76v8.32h9.85v11h-9.85v8.86h6.6v12.95Z"/>
    <path class="cls-2" d="M92.96,338.49h-32.53v-12.95h5.25v-28.19h-5.25v-12.95h32.53v12.95h-5.21v28.19h5.21v12.95Z"/>
    <path class="cls-2" d="M153.26,338.49h-54.31v-12.95h5.13v-28.19h-5.13v-12.95h32.61v12.95h-5.41v28.19h13.5v-8.67h13.62v21.62Z"/>
    <path class="cls-2" d="M180.37,338.49h-22.11v-12.95h4.39v-28.19h-4.51v-12.95h34.42l8.41,20.88,8.61-20.88h34.21v12.95h-4.47v28.19h4.59v12.95h-29.78v-12.95h4.55v-30.21l-17.23,43.15h-8.53l-17.07-42.76v29.82h4.51v12.95Z"/>
    <path class="cls-2" d="M305.61,338.49h-54.44v-12.95h4.43v-28.19h-4.51v-12.95h54.52v17.3h-14.97v-4.35h-12.96v8.32h11.28v11h-11.28v8.86h12.96v-4.35h14.97v17.3Z"/>
    <path class="cls-2" d="M341.22,338.49h-26.54v-12.95h4.47v-28.19h-4.47v-12.95h27.32c6.24,0,11.32.36,15.26,1.09,3.97.73,7.7,2.22,11.2,4.47,3.47,2.28,6.21,5.36,8.2,9.25.98,1.87,1.74,3.86,2.26,5.99.52,2.13.78,4.35.78,6.69,0,4.69-1.05,8.97-3.16,12.83-2.08,3.84-4.72,6.78-7.92,8.82-3.12,2.05-6.54,3.38-10.26,4-3.69.62-9.41.93-17.15.93ZM341.22,297.36v28.19h2.09c5.2,0,8.57-1.31,10.13-3.93,1.53-2.62,2.3-5.91,2.3-9.87,0-2.38-.33-4.74-.98-7.08-.68-2.33-1.89-4.13-3.61-5.4-1.7-1.27-4.73-1.9-9.11-1.9h-.82Z"/>
  </g>
  <g>
    <path class="cls-1" d="M419.37,338.49h-32.53v-12.95h5.25v-28.19h-5.25v-12.95h32.53v12.95h-5.21v28.19h5.21v12.95Z"/>
    <path class="cls-1" d="M469.95,338.49h-32.04v-12.95h4.92v-28.19h-6.56v9.84h-10.71v-22.78h56.57v22.78h-10.71v-9.84h-6.52v28.19h5.05v12.95Z"/>
  </g>
  <g>
    <path class="cls-2" d="M.02,267.55c3.39,0,7.17.01,11.19.02V.05H0v53.81c.02,28.11.02,57.8.02,86.31.02,19,.02,37.48,0,54.63v72.75Z"/>
    <path class="cls-2" d="M390.85,0v.05h-90.51c-32.94,23.97-90.65,66.11-102.52,74.98C170.78,55.43,117.67,17.02,94.13.05H19v267.53c22.34.03,50.31.06,71.13.09v-14.96c0-30.21,0-65.46.02-99.16,0-22.85.02-44.98.05-64.34,12.06,8.72,27.47,19.88,43.52,31.53,22.23,16.13,45.72,33.19,63.39,46.01,39.41-28.65,101.94-73.86,144.34-104.78,15.15.02,33.29,0,49.41-.02,0,41.3,0,84.06.02,121.21v10.36c0,1.05.05,5.62.05,9.53-31.44-.02-78.94-.06-104.42-.09-.02-19.5,0-52.33-.02-70.46-19.42,14.06-64.87,46.95-89.32,64.54.26,18,.07,55.5.02,70.58,3.62,0,7.34,0,11.15-.02h273.74v-21.99c0-23.74.02-48.49.02-73.51V0h-91.28Z"/>
  </g>
</svg>